<?xml version="1.0" standalone="no"?>
<!DOCTYPE svg PUBLIC "-//W3C//DTD SVG 20010904//EN"
 "http://www.w3.org/TR/2001/REC-SVG-20010904/DTD/svg10.dtd">
<svg version="1.0" xmlns="http://www.w3.org/2000/svg"
 width="512.000000pt" height="512.000000pt" viewBox="0 0 512.000000 512.000000"
 preserveAspectRatio="xMidYMid meet">

<g transform="translate(0.000000,512.000000) scale(0.100000,-0.100000)"
fill="#000000" stroke="none">
<path d="M4515 5109 c-148 -14 -334 -46 -470 -80 -66 -17 -130 -34 -142 -36
-27 -6 -28 -11 -7 -111 56 -276 251 -567 514 -766 138 -105 384 -210 536 -230
l52 -6 20 77 c70 262 96 471 96 784 l1 255 -27 41 c-44 67 -75 76 -288 79
-102 1 -230 -2 -285 -7z"/>
<path d="M3500 4841 c-687 -309 -1320 -839 -1897 -1591 -146 -191 -453 -648
-453 -676 0 -5 75 -84 166 -175 l166 -166 92 30 c109 35 287 48 377 27 219
-52 349 -224 349 -462 0 -94 -18 -200 -49 -291 l-19 -54 173 -173 c111 -111
178 -171 187 -167 29 11 390 248 525 343 240 172 501 386 698 574 483 459 823
925 1036 1415 l48 110 -107 26 c-389 97 -730 340 -963 688 -111 165 -187 336
-224 504 -9 42 -18 77 -19 77 0 0 -39 -18 -86 -39z m-13 -822 c263 -70 465
-273 534 -537 26 -97 28 -258 5 -357 -9 -38 -38 -113 -63 -165 -40 -80 -61
-109 -138 -185 -103 -103 -168 -145 -292 -187 -161 -56 -367 -48 -527 19 -229
95 -405 315 -447 557 -16 96 -7 263 21 351 120 385 520 608 907 504z"/>
<path d="M3226 3739 c-214 -32 -376 -223 -376 -443 0 -248 199 -446 450 -446
190 0 373 136 425 317 19 66 22 181 5 243 -59 220 -277 363 -504 329z"/>
<path d="M1055 3461 c-141 -35 -280 -99 -410 -189 -52 -36 -176 -151 -357
-331 -255 -255 -277 -279 -283 -318 -8 -53 7 -102 43 -137 46 -44 82 -48 191
-25 53 11 132 27 176 35 84 15 272 21 315 9 24 -6 30 2 100 122 143 246 303
490 463 706 54 74 77 111 70 118 -32 32 -197 37 -308 10z"/>
<path d="M897 2132 c-112 -214 -167 -331 -167 -360 0 -35 24 -84 56 -114 l29
-27 70 82 c39 45 129 142 202 217 l132 136 -117 117 -117 116 -88 -167z"/>
<path d="M1730 1995 c-47 -9 -110 -31 -170 -61 -87 -43 -106 -57 -230 -183
-372 -377 -730 -868 -730 -1002 0 -133 116 -187 253 -118 142 72 372 232 552
384 147 124 422 384 462 437 106 138 161 322 129 431 -31 106 -112 141 -266
112z"/>
<path d="M3370 1299 c-110 -84 -516 -352 -695 -458 l-169 -101 -1 -122 c0 -71
-11 -195 -24 -293 -28 -200 -25 -234 25 -282 40 -38 91 -50 143 -35 50 15 566
534 633 637 127 194 189 377 190 555 0 89 -12 151 -29 149 -5 0 -37 -23 -73
-50z"/>
<path d="M1975 1130 c-50 -50 -147 -141 -217 -203 l-127 -112 32 -34 c37 -39
83 -61 127 -61 28 0 282 124 467 227 l52 29 -122 122 -122 122 -90 -90z"/>
</g>
</svg>
