<?xml version="1.0" standalone="no"?>
<!DOCTYPE svg PUBLIC "-//W3C//DTD SVG 20010904//EN"
 "http://www.w3.org/TR/2001/REC-SVG-20010904/DTD/svg10.dtd">
<svg version="1.0" xmlns="http://www.w3.org/2000/svg"
 width="512.000000pt" height="512.000000pt" viewBox="0 0 512.000000 512.000000"
 preserveAspectRatio="xMidYMid meet">

<g transform="translate(0.000000,512.000000) scale(0.100000,-0.100000)"
fill="#000000" stroke="none">
<path d="M1015 4348 c-3 -7 -4 -312 -3 -678 l3 -665 483 -3 483 -2 20 47 c46
108 68 141 144 219 121 123 244 175 415 175 171 0 294 -52 415 -175 76 -78 98
-111 144 -219 l20 -47 483 2 483 3 0 675 0 675 -1543 3 c-1229 2 -1544 0
-1547 -10z"/>
<path d="M604 4316 c-306 -99 -534 -359 -589 -671 -11 -65 -15 -161 -15 -366
l0 -279 357 2 358 3 3 668 2 667 -22 0 c-13 -1 -55 -11 -94 -24z"/>
<path d="M4402 3673 l3 -668 358 -3 357 -2 0 279 c0 205 -4 301 -15 366 -55
314 -291 580 -599 674 -120 37 -107 119 -104 -646z"/>
<path d="M2507 3139 c-169 -26 -278 -212 -222 -379 45 -135 195 -221 332 -190
147 32 241 156 231 303 -11 175 -164 293 -341 266z"/>
<path d="M0 1818 c0 -835 1 -885 19 -923 21 -45 61 -89 106 -113 26 -15 68
-17 310 -17 l280 0 3 968 2 967 -360 0 -360 0 0 -882z"/>
<path d="M1012 1733 l3 -968 1545 0 1545 0 3 968 2 967 -489 0 -489 0 -16 -48
c-26 -78 -108 -193 -178 -250 -114 -94 -231 -136 -378 -136 -147 0 -264 42
-378 136 -70 57 -152 172 -178 250 l-16 48 -489 0 -489 0 2 -967z"/>
<path d="M4402 1733 l3 -968 280 0 c242 0 284 2 310 17 45 24 85 68 106 113
18 38 19 88 19 923 l0 882 -360 0 -360 0 2 -967z"/>
</g>
</svg>
