<?xml version="1.0" standalone="no"?>
<!DOCTYPE svg PUBLIC "-//W3C//DTD SVG 20010904//EN"
 "http://www.w3.org/TR/2001/REC-SVG-20010904/DTD/svg10.dtd">
<svg version="1.0" xmlns="http://www.w3.org/2000/svg"
 width="512.000000pt" height="512.000000pt" viewBox="0 0 512.000000 512.000000"
 preserveAspectRatio="xMidYMid meet">

<g transform="translate(0.000000,512.000000) scale(0.100000,-0.100000)"
fill="#000000" stroke="none">
<path d="M363 4865 c-85 -23 -153 -63 -219 -129 -67 -67 -106 -134 -129 -223
-23 -86 -23 -2700 0 -2786 46 -178 195 -321 372 -357 30 -7 112 -10 183 -8
140 3 158 10 204 72 29 39 29 133 0 172 -46 62 -64 69 -214 74 -150 5 -168 12
-214 74 -21 27 -21 34 -24 1112 l-2 1084 27 -13 c22 -9 443 -13 1870 -17 1840
-5 1842 -5 1869 -26 62 -46 69 -64 74 -214 5 -150 12 -168 74 -214 39 -29 133
-29 172 0 62 45 69 65 72 198 6 204 -27 310 -131 422 -101 109 -218 154 -399
154 l-108 0 0 99 c0 54 -5 122 -10 152 -25 129 -125 267 -238 327 -123 66 -24
62 -1677 61 -1258 0 -1508 -3 -1552 -14z m3083 -331 c60 -44 69 -67 72 -185
l4 -109 -1536 0 c-1680 0 -1576 -4 -1629 59 -66 79 -36 206 58 247 25 11 296
13 1517 11 1484 -2 1487 -2 1514 -23z"/>
<path d="M3901 3269 c-81 -16 -169 -65 -235 -132 -155 -154 -188 -365 -90
-559 34 -67 135 -168 202 -202 101 -51 146 -56 538 -56 205 0 385 4 415 10
192 37 351 203 382 400 38 247 -136 493 -382 540 -65 12 -767 12 -830 -1z
m825 -335 c53 -39 69 -71 69 -134 0 -63 -16 -95 -69 -134 -26 -20 -42 -21
-384 -24 -234 -2 -370 1 -394 8 -101 29 -140 168 -71 251 50 58 53 59 455 56
353 -2 368 -3 394 -23z"/>
<path d="M2100 2794 c-298 -38 -550 -162 -761 -373 -186 -185 -300 -394 -355
-651 -26 -119 -26 -381 0 -500 55 -257 169 -466 355 -651 235 -236 511 -359
841 -375 626 -32 1181 401 1316 1026 26 119 26 381 0 500 -108 503 -487 887
-986 1001 -83 19 -331 33 -410 23z m358 -338 c181 -45 346 -140 473 -273 414
-434 337 -1129 -162 -1463 -146 -97 -299 -147 -484 -157 -461 -24 -867 284
-982 745 -23 93 -23 331 0 424 47 189 140 351 274 479 137 131 308 219 492
254 93 18 298 13 389 -9z"/>
<path d="M2175 2146 c-37 -17 -70 -52 -84 -89 -6 -16 -11 -103 -11 -202 l0
-174 -189 -3 c-207 -3 -216 -6 -265 -72 -29 -39 -29 -133 0 -172 49 -66 58
-69 264 -72 l189 -3 3 -189 c3 -206 6 -215 72 -264 39 -29 133 -29 172 0 66
49 69 58 72 264 l3 189 189 3 c206 3 215 6 264 72 29 39 29 133 0 172 -49 66
-58 69 -264 72 l-189 3 -3 189 c-3 206 -6 215 -70 263 -34 25 -113 32 -153 13z"/>
<path d="M4260 2149 c-29 -12 -67 -46 -83 -74 -6 -11 -14 -82 -17 -157 -5
-148 -12 -166 -74 -212 -24 -18 -46 -22 -166 -26 -150 -5 -168 -12 -214 -74
-29 -39 -29 -133 0 -172 45 -62 65 -69 198 -72 212 -6 319 29 432 142 113 113
148 220 142 432 -3 132 -11 153 -70 197 -31 23 -111 32 -148 16z"/>
</g>
</svg>
