<svg xmlns="http://www.w3.org/2000/svg" viewBox="0 0 256 256">
  <defs>
    <linearGradient id="f" x1="0" y1="0" x2="1" y2="1">
      <stop offset="0" stop-color="#DCE1E7"/><stop offset="0.6" stop-color="#A4ADB8"/><stop offset="1" stop-color="#767F8B"/>
    </linearGradient>
    <linearGradient id="m" x1="0" y1="0" x2="1" y2="1">
      <stop offset="0" stop-color="#99A2AD"/><stop offset="1" stop-color="#5E6673"/>
    </linearGradient>
    <linearGradient id="d" x1="0" y1="0" x2="1" y2="1">
      <stop offset="0" stop-color="#575F6B"/><stop offset="1" stop-color="#41474F"/>
    </linearGradient>
  </defs>

  <path d="M60 50 a14 14 0 0 1 14 -14 H156 L196 76 V206 a14 14 0 0 1 -14 14 H74 a14 14 0 0 1 -14 -14 Z" fill="url(#f)"/>
  <path d="M156 36 L196 76 H156 Z" fill="url(#m)"/>
  <rect x="84" y="104" width="88" height="12" rx="6" fill="url(#d)"/>
  <rect x="84" y="132" width="62" height="12" rx="6" fill="url(#d)" opacity="0.85"/>
  <rect x="84" y="160" width="74" height="12" rx="6" fill="url(#d)" opacity="0.85"/>
</svg>
