<svg xmlns="http://www.w3.org/2000/svg" viewBox="0 0 256 256">
  <defs>
    <linearGradient id="f" x1="0" y1="0" x2="1" y2="1">
      <stop offset="0" stop-color="#DCE1E7"/><stop offset="0.6" stop-color="#A4ADB8"/><stop offset="1" stop-color="#767F8B"/>
    </linearGradient>
    <linearGradient id="m" x1="0" y1="0" x2="1" y2="1">
      <stop offset="0" stop-color="#99A2AD"/><stop offset="1" stop-color="#5E6673"/>
    </linearGradient>
    <linearGradient id="d" x1="0" y1="0" x2="1" y2="1">
      <stop offset="0" stop-color="#575F6B"/><stop offset="1" stop-color="#41474F"/>
    </linearGradient>
  </defs>

  <path d="M86 84 h84 c36 0 62 28 62 60 0 28-22 48-46 44 -16 -3 -22 -18 -38 -18 h-40 c-16 0 -22 15 -38 18 -24 4 -46 -16 -46 -44 0 -32 26 -60 62 -60 Z" fill="url(#f)"/>
  <rect x="70" y="122" width="48" height="16" rx="8" fill="url(#d)"/>
  <rect x="86" y="106" width="16" height="48" rx="8" fill="url(#d)"/>
  <circle cx="170" cy="116" r="10" fill="url(#d)"/>
  <circle cx="190" cy="140" r="10" fill="url(#d)"/>
</svg>
