<svg xmlns="http://www.w3.org/2000/svg" viewBox="0 0 256 256">
  <defs>
    <linearGradient id="f" x1="0" y1="0" x2="1" y2="1">
      <stop offset="0" stop-color="#DCE1E7"/><stop offset="0.6" stop-color="#A4ADB8"/><stop offset="1" stop-color="#767F8B"/>
    </linearGradient>
    <linearGradient id="m" x1="0" y1="0" x2="1" y2="1">
      <stop offset="0" stop-color="#99A2AD"/><stop offset="1" stop-color="#5E6673"/>
    </linearGradient>
    <linearGradient id="d" x1="0" y1="0" x2="1" y2="1">
      <stop offset="0" stop-color="#575F6B"/><stop offset="1" stop-color="#41474F"/>
    </linearGradient>
  </defs>

  <path d="M128 26 C158 52 170 104 156 166 L100 166 C86 104 98 52 128 26 Z" fill="url(#f)"/>
  <circle cx="128" cy="98" r="22" fill="url(#d)"/>
  <circle cx="128" cy="98" r="11" fill="url(#m)"/>
  <path d="M100 132 L60 180 L100 180 Z" fill="url(#m)"/>
  <path d="M156 132 L196 180 L156 180 Z" fill="url(#m)"/>
  <path d="M114 180 h28 l-14 40 Z" fill="url(#d)"/>
  <path d="M128 26 C112 40 102 62 98 88 L118 88 C120 62 124 42 128 26 Z" fill="#FFFFFF" opacity="0.3"/>
</svg>
