<svg viewBox="0 0 460 540" width="430" height="505" xmlns="http://www.w3.org/2000/svg" style="overflow:visible">
  <defs>
    <linearGradient id="bodyG" x1="0.2" y1="0" x2="0.7" y2="1">
      <stop offset="0" stop-color="#bcd4ff"></stop>
      <stop offset="0.22" stop-color="#5b86f0"></stop>
      <stop offset="0.62" stop-color="#2f4bc0"></stop>
      <stop offset="1" stop-color="#162a72"></stop>
    </linearGradient>
    <radialGradient id="belly" cx="0.5" cy="0.42" r="0.62">
      <stop offset="0" stop-color="#aef6ff"></stop>
      <stop offset="0.45" stop-color="#3fd9ff"></stop>
      <stop offset="1" stop-color="#0e7fb8"></stop>
    </radialGradient>
    <radialGradient id="visorG" cx="0.5" cy="0.35" r="0.8">
      <stop offset="0" stop-color="#13203f"></stop>
      <stop offset="1" stop-color="#060a18"></stop>
    </radialGradient>
    <radialGradient id="eyeG" cx="0.42" cy="0.32" r="0.85">
      <stop offset="0" stop-color="#ffffff"></stop>
      <stop offset="0.45" stop-color="#9fe9ff"></stop>
      <stop offset="1" stop-color="#2bb8ff"></stop>
    </radialGradient>
    <radialGradient id="halo" cx="0.5" cy="0.5" r="0.5">
      <stop offset="0" stop-color="rgba(70,150,255,0.55)"></stop>
      <stop offset="0.5" stop-color="rgba(50,120,255,0.18)"></stop>
      <stop offset="1" stop-color="rgba(50,120,255,0)"></stop>
    </radialGradient>
    <radialGradient id="orbG" cx="0.4" cy="0.35" r="0.8">
      <stop offset="0" stop-color="#ffffff"></stop>
      <stop offset="0.4" stop-color="#5fe6ff"></stop>
      <stop offset="1" stop-color="#1aa0e0"></stop>
    </radialGradient>
    <radialGradient id="orbCoin" cx="0.35" cy="0.3" r="0.85">
      <stop offset="0" stop-color="#fff2c0"></stop>
      <stop offset="0.4" stop-color="#ffcf5a"></stop>
      <stop offset="0.75" stop-color="#e09a26"></stop>
      <stop offset="1" stop-color="#a86a12"></stop>
    </radialGradient>
    <linearGradient id="cardG" x1="0" y1="0" x2="1" y2="1">
      <stop offset="0" stop-color="#9fe0ff"></stop>
      <stop offset="0.5" stop-color="#4f7bff"></stop>
      <stop offset="1" stop-color="#7a3cff"></stop>
    </linearGradient>
    <filter id="soft" x="-40%" y="-40%" width="180%" height="180%">
      <feGaussianBlur stdDeviation="6"></feGaussianBlur>
    </filter>
  </defs>

  
  <circle cx="230" cy="250" r="250" fill="url(#halo)"></circle>
  
  <ellipse cx="232" cy="512" rx="150" ry="26" fill="rgba(2,6,16,0.6)" filter="url(#soft)"></ellipse>

  
  <ellipse cx="180" cy="486" rx="44" ry="30" fill="url(#bodyG)" stroke="rgba(150,200,255,0.5)" stroke-width="2"></ellipse>
  <ellipse cx="286" cy="486" rx="44" ry="30" fill="url(#bodyG)" stroke="rgba(150,200,255,0.5)" stroke-width="2"></ellipse>

  
  <path d="M150 320 C 90 280 60 210 78 168" fill="none" stroke="url(#bodyG)" stroke-width="44" stroke-linecap="round"></path>
  <path d="M316 320 C 376 280 406 210 388 168" fill="none" stroke="url(#bodyG)" stroke-width="44" stroke-linecap="round"></path>

  
  <rect x="116" y="262" width="232" height="216" rx="104" fill="url(#bodyG)" stroke="rgba(150,205,255,0.55)" stroke-width="3"></rect>
  <ellipse cx="200" cy="300" rx="76" ry="34" fill="rgba(255,255,255,0.32)" filter="url(#soft)"></ellipse>
  <rect x="178" y="306" width="108" height="120" rx="52" fill="url(#belly)" stroke="rgba(180,250,255,0.7)" stroke-width="2"></rect>
  <rect x="178" y="306" width="108" height="120" rx="52" fill="none" stroke="rgba(120,240,255,0.45)" stroke-width="10" filter="url(#soft)"></rect>
  <circle cx="232" cy="352" r="16" fill="rgba(255,255,255,0.85)"></circle>
  <rect x="206" y="384" width="52" height="9" rx="4" fill="rgba(255,255,255,0.7)"></rect>

  
  <circle cx="76" cy="160" r="40" fill="url(#bodyG)" stroke="rgba(150,205,255,0.55)" stroke-width="3"></circle>
  <circle cx="388" cy="160" r="40" fill="url(#bodyG)" stroke="rgba(150,205,255,0.55)" stroke-width="3"></circle>
  <ellipse cx="66" cy="148" rx="16" ry="10" fill="rgba(255,255,255,0.4)"></ellipse>
  <ellipse cx="378" cy="148" rx="16" ry="10" fill="rgba(255,255,255,0.4)"></ellipse>

  
  <rect x="98" y="74" width="264" height="208" rx="78" fill="url(#bodyG)" stroke="rgba(150,205,255,0.6)" stroke-width="3"></rect>
  <ellipse cx="180" cy="118" rx="78" ry="34" fill="rgba(255,255,255,0.34)" filter="url(#soft)"></ellipse>
  <rect x="128" y="118" width="204" height="128" rx="60" fill="url(#visorG)" stroke="rgba(90,150,255,0.35)" stroke-width="2"></rect>
  <ellipse cx="190" cy="138" rx="62" ry="20" fill="rgba(120,180,255,0.12)"></ellipse>
  <ellipse cx="196" cy="178" rx="27" ry="35" fill="url(#eyeG)"></ellipse>
  <ellipse cx="288" cy="178" rx="27" ry="35" fill="url(#eyeG)"></ellipse>
  <circle cx="201" cy="186" r="12" fill="#0a1430"></circle>
  <circle cx="293" cy="186" r="12" fill="#0a1430"></circle>
  <circle cx="190" cy="168" r="7" fill="#ffffff"></circle>
  <circle cx="282" cy="168" r="7" fill="#ffffff"></circle>
  <path d="M214 214 Q 240 234 266 214" fill="none" stroke="#5fe6ff" stroke-width="6" stroke-linecap="round"></path>
  <ellipse cx="156" cy="200" rx="13" ry="9" fill="rgba(95,230,255,0.25)"></ellipse>
  <ellipse cx="330" cy="200" rx="13" ry="9" fill="rgba(95,230,255,0.25)"></ellipse>

  
  <line x1="230" y1="74" x2="230" y2="40" stroke="rgba(150,205,255,0.7)" stroke-width="6" stroke-linecap="round"></line>
  <circle cx="230" cy="30" r="18" fill="url(#orbG)"></circle>
  <circle cx="230" cy="30" r="26" fill="none" stroke="rgba(95,230,255,0.5)" stroke-width="8" filter="url(#soft)"></circle>

  
  <path d="M120 96 Q 230 60 348 96" fill="none" stroke="rgba(150,225,255,0.55)" stroke-width="5" stroke-linecap="round"></path>
  <path d="M134 270 Q 230 246 332 270" fill="none" stroke="rgba(150,225,255,0.45)" stroke-width="4" stroke-linecap="round"></path>

  
  <g transform="rotate(-18 60 110)">
    <rect x="6" y="78" width="120" height="78" rx="14" fill="url(#cardG)" stroke="rgba(255,255,255,0.5)" stroke-width="2"></rect>
    <rect x="6" y="78" width="120" height="78" rx="14" fill="none" stroke="rgba(90,150,255,0.5)" stroke-width="8" filter="url(#soft)"></rect>
    <path d="M14 84 L120 84 L60 150 Z" fill="rgba(255,255,255,0.18)"></path>
    <rect x="20" y="92" width="26" height="20" rx="4" fill="#ffe9a8"></rect>
    <rect x="18" y="132" width="60" height="8" rx="4" fill="rgba(255,255,255,0.7)"></rect>
  </g>

  
  <g>
    <circle cx="388" cy="118" r="36" fill="none" stroke="rgba(255,200,90,0.45)" stroke-width="10" filter="url(#soft)"></circle>
    <circle cx="388" cy="118" r="34" fill="url(#orbCoin)" stroke="rgba(180,110,20,0.5)" stroke-width="2"></circle>
    <ellipse cx="380" cy="106" rx="11" ry="6" fill="rgba(255,255,255,0.6)"></ellipse>
    <rect x="382" y="100" width="12" height="36" rx="3" fill="rgba(160,95,15,0.55)"></rect>
    <rect x="370" y="112" width="36" height="9" rx="3" fill="rgba(160,95,15,0.55)"></rect>
  </g>
</svg>